<?xml version="1.0" standalone="no"?><!DOCTYPE svg PUBLIC "-//W3C//DTD SVG 1.1//EN" "http://www.w3.org/Graphics/SVG/1.1/DTD/svg11.dtd"><svg t="1717661056990" class="icon" viewBox="0 0 1038 1024" version="1.1" xmlns="http://www.w3.org/2000/svg" p-id="18005" xmlns:xlink="http://www.w3.org/1999/xlink" width="202.734375" height="200"><path d="M519.910563 0a511.992509 511.992509 0 1 0 511.935546 511.992509A512.676077 512.676077 0 0 0 519.910563 0z" fill="#FF6C17" p-id="18006"></path><path d="M1030.02326 419.084211c0.56964-2.734272 0.85446-4.386229 0.911424-4.614084l-1.879812-0.284821C982.629205 178.582167 771.748445 0 519.340923 0 232.982852 0 0.000057 229.735847 0.000057 511.992509a504.245404 504.245404 0 0 0 14.184038 118.94085l0.56964 1.196244c55.027232 224.38123 260.439447 391.570595 504.815044 391.570595 286.358071 0 519.340866-229.621919 519.340867-511.821617a505.498612 505.498612 0 0 0-8.886386-92.79437z m-8.487637 92.908298A487.782806 487.782806 0 0 1 911.424194 820.851364l-1.253208-0.455712s-10.766198 22.215963-76.787483 32.412521c-70.635371 10.880126-188.72176-30.646637-268.756193-69.666983-49.672615-24.209704-95.07293-46.368703-152.948363-88.237249l61.692021-85.047265a278.041326 278.041326 0 0 0 145.65697 44.204071c6.038185 0 11.734586 0 17.089203-0.797496 60.837561-5.696401 174.822542-49.501723 249.95807-88.23725C947.767232 533.126156 991.173806 499.232571 1010.769425 467.10487a146.397502 146.397502 0 0 0 7.23443-13.329578 489.890474 489.890474 0 0 1 3.531768 58.217217z m-9.000313-93.250082a143.09359 143.09359 0 0 1-16.348671 39.305166c-18.228483 29.56432-59.071677 61.293273-118.143354 91.825982-72.059471 37.197498-185.759632 80.831928-243.748992 86.414401-36.058217 3.531769-96.212211-5.240689-150.897659-40.273554l344.74618-473.883588a494.276703 494.276703 0 0 1 184.44946 296.611593zM814.58538 111.934277l-345.201892 474.339299c-52.463852-40.615338-80.945856-120.023166-86.243509-135.973088-10.025666-30.133961-9.740845-118.826922-5.297653-188.550869 3.930517-61.065417 21.589359-146.739286 39.305166-191.057284 17.089203-42.21033 49.387795-49.558687 50.754932-49.843508v-1.025352A513.359645 513.359645 0 0 1 519.340923 17.089203 504.587188 504.587188 0 0 1 814.58538 111.934277zM427.230121 25.690768a108.231616 108.231616 0 0 0-25.633803 38.735526c-18.285447 45.571207-36.456965 133.751492-40.444447 196.297973-3.531769 54.970268-6.266041 157.904232 6.095149 195.044766 5.696401 17.089203 35.773397 100.712367 92.395622 144.403762l-61.919877 84.591552a1339.679554 1339.679554 0 0 1-104.244136-88.009393C158.758749 472.231631 114.782534 364.000015 102.136524 323.270749 84.933394 267.73084 108.231673 230.248523 108.687385 229.906739l-1.196244-0.797496A503.90362 503.90362 0 0 1 426.888337 25.690768zM79.066101 274.167773a149.986235 149.986235 0 0 0 6.778717 54.172773C98.889576 370.266056 144.118999 481.972477 281.857971 609.514892a1342.698647 1342.698647 0 0 0 105.896092 89.205637l-50.584039 69.496091a721.392205 721.392205 0 0 0-75.87606-49.102976c-29.108608-15.665102-75.933023-27.342724-117.288893-37.596245-29.963069-7.462285-58.217217-14.468858-72.970895-21.475431-26.830048-12.702974-37.539282-28.482004-40.50141-33.836622a487.83977 487.83977 0 0 1 48.476371-351.923645z m-38.50767 387.355259a133.409708 133.409708 0 0 0 23.241316 13.956182c16.291706 7.690141 44.033179 14.582786 76.160879 22.785603 40.387482 10.025666 86.129581 21.418467 113.301413 36.058218a706.752455 706.752455 0 0 1 74.053211 47.906731l-97.693274 133.637564a497.352759 497.352759 0 0 1-189.120509-254.51519z m203.247583 263.857288l96.838814-133.352745a578.355579 578.355579 0 0 1 79.00908 69.154307 516.378738 516.378738 0 0 1 54.343664 76.901412 442.553383 442.553383 0 0 0 30.874493 46.19781 145.827862 145.827862 0 0 0 23.29828 22.272928h-9.057278a504.701116 504.701116 0 0 1-275.307053-81.173712z m312.219731 79.749612a174.65165 174.65165 0 0 1-37.65321-31.501097 431.787185 431.787185 0 0 1-29.621284-44.431927A530.562776 530.562776 0 0 0 432.926522 849.903008a593.337114 593.337114 0 0 0-81.743352-71.774651l50.58404-69.553054C461.408527 751.924913 508.517762 774.710517 557.335917 798.692364 629.965028 834.123978 734.209164 871.549331 808.888979 871.549331a178.240383 178.240383 0 0 0 26.943976-1.879812 257.876067 257.876067 0 0 0 39.305166-8.943349 504.131476 504.131476 0 0 1-319.112376 144.631618z" fill="#324239" p-id="18007"></path></svg>